<svg width="16" height="16" viewBox="0 0 16 16" xmlns="http://www.w3.org/2000/svg" xmlns:sketch="http://www.bohemiancoding.com/sketch/ns"><title>Cross</title><path d="M8.826 7.5l5.899-5.9c.366-.366.366-.96 0-1.326-.366-.366-.96-.366-1.326 0l-5.9 5.899-5.899-5.899c-.366-.366-.96-.366-1.326 0-.366.366-.366.96 0 1.326l5.9 5.9-5.9 5.9c-.366.366-.366.96 0 1.326.183.183.423.275.663.275.24 0 .48-.092.663-.275l5.899-5.899 5.9 5.899c.183.183.423.275.663.275.24 0 .48-.092.663-.275.366-.366.366-.96 0-1.326l-5.899-5.9z" sketch:type="MSShapeGroup" fill="#fff"/></svg>