<svg width="20" height="20" viewBox="0 0 20 20" xmlns="http://www.w3.org/2000/svg" xmlns:sketch="http://www.bohemiancoding.com/sketch/ns"><title>Dribbble</title><path d="M13.333 17.865c-.365-2.092-.972-4.253-1.823-6.484h-.026l-.026.013-.56.215c-.234.091-.673.304-1.315.638-.642.334-1.237.69-1.784 1.068-.547.378-1.115.875-1.706 1.491-.59.616-1.037 1.259-1.341 1.927l-.195-.143c1.597 1.302 3.411 1.953 5.443 1.953 1.146 0 2.257-.226 3.333-.677zm-2.409-7.904c-.182-.425-.412-.907-.69-1.445-2.7.807-5.621 1.211-8.763 1.211l-.013.273c0 1.076.191 2.103.573 3.079.382.977.92 1.851 1.615 2.624.434-.773.97-1.495 1.608-2.168.638-.673 1.257-1.213 1.855-1.621.599-.408 1.165-.76 1.699-1.055.534-.295.966-.503 1.296-.625l.482-.169.169-.046.169-.059zm-1.393-2.76c-1.042-1.849-2.101-3.49-3.177-4.922-1.198.564-2.214 1.372-3.047 2.422-.833 1.05-1.389 2.231-1.667 3.542 2.622 0 5.252-.347 7.891-1.042zm8.906 4.154c-1.823-.521-3.598-.647-5.326-.378.755 2.075 1.311 4.11 1.667 6.107.964-.651 1.766-1.474 2.409-2.467.642-.994 1.059-2.081 1.25-3.262zm-10.482-9.648l-.026.013.026-.013zm7.682 1.888c-1.606-1.424-3.485-2.135-5.638-2.135-.66 0-1.332.082-2.018.247 1.137 1.476 2.205 3.134 3.203 4.974.599-.226 1.163-.488 1.693-.788.53-.299.948-.566 1.257-.801.308-.234.592-.482.853-.742.26-.26.423-.436.488-.527l.163-.228zm2.904 6.315c-.026-2.014-.673-3.793-1.94-5.339l-.013.013-.247.319c-.087.109-.276.302-.566.579-.291.278-.599.54-.924.788-.326.247-.76.53-1.302.846-.543.317-1.113.597-1.712.84.217.46.408.872.573 1.237l.085.228.098.215c.313-.043.636-.074.97-.091.334-.017.653-.026.957-.026.304 0 .603.007.898.02.295.013.573.03.833.052l.736.072.625.085.475.078.326.059.13.026zm1.458.091c0 1.814-.447 3.487-1.341 5.02-.894 1.532-2.107 2.745-3.639 3.639-1.532.894-3.205 1.341-5.02 1.341-1.814 0-3.487-.447-5.02-1.341-1.532-.894-2.745-2.107-3.639-3.639-.894-1.532-1.341-3.205-1.341-5.02 0-1.814.447-3.487 1.341-5.02.894-1.532 2.107-2.745 3.639-3.639 1.532-.894 3.205-1.341 5.02-1.341 1.814 0 3.487.447 5.02 1.341 1.532.894 2.745 2.107 3.639 3.639.894 1.532 1.341 3.205 1.341 5.02z" sketch:type="MSShapeGroup" fill="#fff"/></svg>