<svg width="20" height="16" viewBox="0 0 20 16" xmlns="http://www.w3.org/2000/svg" xmlns:sketch="http://www.bohemiancoding.com/sketch/ns"><title>Email</title><path d="M18.571 14.182v-8.727c-.238.273-.495.523-.77.75-1.994 1.561-3.579 2.841-4.754 3.841-.379.326-.688.58-.926.761-.238.182-.56.366-.965.551-.406.186-.787.278-1.144.278h-.022c-.357 0-.738-.093-1.144-.278-.406-.186-.727-.369-.965-.551-.238-.182-.547-.436-.926-.761-1.176-1-2.76-2.28-4.754-3.841-.275-.227-.532-.477-.77-.75v8.727c0 .098.035.184.106.256.071.072.154.108.251.108h16.429c.097 0 .18-.036.251-.108.071-.072.106-.157.106-.256zm0-11.943v-.278l-.006-.148-.033-.142-.061-.102c-.022-.072-.056-.1-.1-.085l-.156-.028h-16.429c-.097 0-.18.036-.251.108-.071.072-.106.157-.106.256 0 1.273.547 2.348 1.641 3.227 1.436 1.152 2.928 2.352 4.475 3.602l.391.335.513.426.497.358c.205.14.392.244.564.313.171.068.331.102.48.102h.022c.149 0 .309-.034.48-.102.171-.068.359-.172.564-.313.205-.14.37-.259.497-.358l.513-.426.391-.335c1.548-1.25 3.039-2.451 4.475-3.602.402-.326.776-.763 1.122-1.313.346-.549.519-1.047.519-1.494zm1.429-.42v12.364c0 .5-.175.928-.525 1.284-.35.356-.77.534-1.261.534h-16.429c-.491 0-.911-.178-1.261-.534-.35-.356-.525-.784-.525-1.284v-12.364c0-.5.175-.928.525-1.284.35-.356.77-.534 1.261-.534h16.429c.491 0 .911.178 1.261.534.35.356.525.784.525 1.284z" sketch:type="MSShapeGroup" fill="#fff"/></svg>