<svg width="20" height="20" viewBox="0 0 20 20" xmlns="http://www.w3.org/2000/svg" xmlns:sketch="http://www.bohemiancoding.com/sketch/ns"><title>Facebook</title><path d="M17.689 10.5l.311-2.931h-2.68v-1.459c0-.437.07-.743.21-.917.14-.174.462-.261.968-.261h1.489v-2.931h-2.369c-1.372 0-2.355.321-2.951.964-.596.643-.893 1.593-.893 2.851v1.754h-1.773v2.931h1.773v8.5h3.547v-8.5h2.369zm2.311-6.75v12.5c0 1.033-.367 1.916-1.1 2.65-.734.734-1.617 1.1-2.65 1.1h-12.5c-1.033 0-1.916-.367-2.65-1.1-.734-.734-1.1-1.617-1.1-2.65v-12.5c0-1.033.367-1.916 1.1-2.65.734-.734 1.617-1.1 2.65-1.1h12.5c1.033 0 1.916.367 2.65 1.1.734.734 1.1 1.617 1.1 2.65z" sketch:type="MSShapeGroup" fill="#fff"/></svg>