<svg width="20" height="20" viewBox="0 0 20 20" xmlns="http://www.w3.org/2000/svg" xmlns:sketch="http://www.bohemiancoding.com/sketch/ns"><title>GitHub</title><path d="M20 10.25c0 2.233-.636 4.242-1.908 6.026-1.272 1.784-2.914 3.019-4.928 3.704-.234.044-.406.013-.514-.093-.109-.107-.163-.24-.163-.4v-2.816c0-.863-.226-1.495-.677-1.895.495-.053.94-.133 1.335-.24.395-.107.803-.28 1.224-.521.421-.24.773-.536 1.055-.888.282-.351.512-.819.69-1.401.178-.583.267-1.252.267-2.009 0-1.077-.343-1.993-1.029-2.749.321-.81.286-1.717-.104-2.723-.243-.08-.595-.031-1.055.147-.46.178-.859.374-1.198.587l-.495.32c-.807-.231-1.641-.347-2.5-.347s-1.693.116-2.5.347c-.139-.098-.323-.218-.553-.36-.23-.142-.592-.314-1.087-.514s-.868-.26-1.12-.18c-.382 1.005-.412 1.913-.091 2.723-.686.756-1.029 1.673-1.029 2.749 0 .756.089 1.424.267 2.002.178.578.406 1.046.684 1.401.278.356.627.654 1.048.894.421.24.829.414 1.224.521.395.107.84.187 1.335.24-.347.32-.56.779-.638 1.375-.182.089-.378.156-.586.2-.208.044-.456.067-.742.067s-.571-.096-.853-.287c-.282-.191-.523-.469-.723-.834-.165-.285-.375-.516-.632-.694-.256-.178-.471-.285-.645-.32l-.26-.04c-.182 0-.308.02-.378.06-.069.04-.091.091-.065.153l.117.187.169.16.091.067c.191.089.38.258.566.507.187.249.323.476.41.681l.13.307c.113.338.304.612.573.821.269.209.56.343.872.4.313.058.614.089.905.093.291.004.532-.011.723-.047l.299-.053.007 1.188.007.721c0 .16-.056.294-.169.4-.113.107-.286.138-.521.093-2.014-.685-3.657-1.92-4.928-3.704-1.272-1.784-1.908-3.793-1.908-6.026 0-1.86.447-3.575 1.341-5.145.894-1.57 2.107-2.814 3.639-3.73 1.532-.916 3.205-1.375 5.02-1.375 1.814 0 3.487.458 5.02 1.375 1.532.916 2.745 2.16 3.639 3.73.894 1.57 1.341 3.286 1.341 5.145z" sketch:type="MSShapeGroup" fill="#fff"/></svg>