<svg xmlns="http://www.w3.org/2000/svg" xmlns:sketch="http://www.bohemiancoding.com/sketch/ns" width="189" height="20" viewBox="0 0 189 20"><style>.style0{fill: none;fill-rule: evenodd;}.style1{fill: #FFFFFF;}</style><title>Logo</title><path d="M70.9 16.9v2.6h23.8v-2.6h-23.8zm-69.2 2.6h3.9v-11.7l5 7.6h.1l5.1-7.7v11.8h4v-18h-4.3l-4.8 7.6-4.7-7.6h-4.3v18zm22.6 0h3.9v-18h-3.9v18zm14.8.3c3.9 0 6.7-2 6.7-5.6v-.1c0-3.1-2.1-4.4-5.7-5.4-3.2-.8-3.9-1.2-3.9-2.3v-.1c0-.9.8-1.6 2.3-1.6 1.5 0 3.1.7 4.7 1.8l2-3c-1.8-1.4-4-2.3-6.7-2.3-3.7 0-6.3 2.2-6.3 5.5 0 3.6 2.4 4.6 6 5.5 3 .8 3.6 1.3 3.6 2.3v.1c0 1-1 1.7-2.6 1.7-2 0-3.7-.9-5.4-2.2l-2.3 2.8c2.2 1.9 4.9 2.9 7.6 2.9zm10.1-.3h13.7v-3.5h-9.7v-3.8h8.5v-3.5h-8.5v-3.7h9.6v-3.5h-13.6v18zm54.2 0h4v-5.4h3c4.1 0 7.3-2.2 7.3-6.3v-.1c0-3.7-2.6-6.2-6.9-6.2h-7.4v18zm4-8.9v-5.5h3.1c2 0 3.2.9 3.2 2.7v.1c0 1.5-1.2 2.7-3.1 2.7h-3.2zm13.2 8.9h13v-3.6h-9v-14.4h-4v18zm14.4 0h4.1l1.6-4h7.7l1.6 4h4.2l-7.8-18.1h-3.6l-7.8 18.1zm7.2-7.5l2.3-5.9 2.4 5.9h-4.7zm22 7.8c3.5 0 5.6-1.2 7.4-3.2l-2.5-2.6c-1.4 1.3-2.7 2.2-4.8 2.2-3 0-5.2-2.6-5.2-5.7v-.1c0-3 2.2-5.6 5.2-5.6 1.9 0 3.3.8 4.7 2.1l2.5-2.9c-1.7-1.7-3.7-2.8-7.1-2.8-5.6 0-9.4 4.2-9.4 9.3v.1c0 5.1 3.9 9.2 9.2 9.2zm10.6-.3h13.7v-3.5h-9.8v-3.8h8.5v-3.5h-8.5v-3.7h9.7v-3.5h-13.6v18zm-103.6-5.1h9.6v-2.5h-6.9v-2.7h6v-2.4h-6v-2.6h6.8v-2.4h-9.5v12.6zm12 0h2.8v-8.1l6.1 8.1h2.3v-12.6h-2.7v7.7l-5.9-7.7h-2.6v12.6z" sketch:type="MSShapeGroup" class="style1"/></svg>