<svg width="189" height="20" viewBox="0 0 189 20" xmlns="http://www.w3.org/2000/svg" xmlns:sketch="http://www.bohemiancoding.com/sketch/ns"><title>Logo</title><path d="M70.89 16.929v2.571h23.822v-2.571h-23.822zm-69.161 2.571h3.889v-11.674l5.022 7.611h.103l5.073-7.689v11.751h3.94v-18h-4.275l-4.739 7.611-4.739-7.611h-4.275v18zm22.534 0h3.966v-18h-3.966v18zm14.885.257c3.889 0 6.619-2.006 6.619-5.58v-.051c0-3.137-2.06-4.449-5.717-5.4-3.116-.797-3.889-1.183-3.889-2.366v-.051c0-.874.798-1.569 2.318-1.569 1.519 0 3.09.669 4.687 1.774l2.06-2.983c-1.828-1.466-4.069-2.289-6.696-2.289-3.683 0-6.31 2.16-6.31 5.426v.051c0 3.574 2.344 4.577 5.975 5.503 3.013.771 3.631 1.286 3.631 2.289v.051c0 1.054-.979 1.697-2.601 1.697-2.06 0-3.76-.849-5.382-2.186l-2.344 2.803c2.163 1.929 4.919 2.88 7.649 2.88zm10.07-.257h13.727v-3.523h-9.786v-3.78h8.499v-3.523h-8.499v-3.651h9.658v-3.523h-13.598v18zm54.224 0h3.966v-5.4h3.013c4.043 0 7.288-2.16 7.288-6.326v-.051c0-3.677-2.601-6.223-6.902-6.223h-7.365v18zm3.966-8.923v-5.503h3.065c1.983 0 3.219.951 3.219 2.726v.051c0 1.543-1.159 2.726-3.142 2.726h-3.142zm13.237 8.923h12.954v-3.6h-8.988v-14.4h-3.966v18zm14.396 0h4.043l1.648-4.037h7.623l1.648 4.037h4.146l-7.726-18.129h-3.657l-7.726 18.129zm7.108-7.534l2.395-5.837 2.395 5.837h-4.79zm22.071 7.843c3.477 0 5.537-1.234 7.391-3.214l-2.524-2.546c-1.416 1.286-2.678 2.109-4.739 2.109-3.09 0-5.228-2.571-5.228-5.657v-.051c0-3.086 2.189-5.606 5.228-5.606 1.803 0 3.219.771 4.61 2.031l2.524-2.906c-1.674-1.646-3.708-2.777-7.108-2.777-5.537 0-9.4 4.191-9.4 9.309v.051c0 5.169 3.94 9.257 9.245 9.257zm10.559-.309h13.727v-3.523h-9.786v-3.78h8.499v-3.523h-8.499v-3.651h9.658v-3.523h-13.598v18zm-103.624-5.143h9.609v-2.466h-6.85v-2.646h5.949v-2.466h-5.949v-2.556h6.76v-2.466h-9.518v12.6zm12.078 0h2.74v-8.01l6.111 8.01h2.362v-12.6h-2.74v7.758l-5.913-7.758h-2.56v12.6z" sketch:type="MSShapeGroup" fill="#fff"/></svg>