<svg width="100" height="15" viewBox="0 0 100 15" xmlns="http://www.w3.org/2000/svg" xmlns:sketch="http://www.bohemiancoding.com/sketch/ns"><title>logo</title><desc>Created with Sketch Beta.</desc><path d="M3.402 14.072h2.448l1.89-5.922 1.854 5.922h2.466l3.006-9.72h-2.718l-1.584 5.868-1.836-5.904h-2.358l-1.818 5.886-1.548-5.85h-2.772l2.97 9.72zm13.446-.072h2.736v-9.648h-2.736v9.648zm5.31 0h2.736v-2.934l.954-1.008 2.52 3.942h3.132l-3.798-5.85 3.672-3.798h-3.276l-3.204 3.51v-7.002h-2.736v13.14zm10.782 0h2.736v-9.648h-2.736v9.648zm9.864.216c1.926 0 3.006-.738 3.942-1.764l-1.602-1.62c-.666.63-1.296 1.026-2.214 1.026-1.494 0-2.448-1.188-2.448-2.664v-.036c0-1.422.972-2.628 2.34-2.628.972 0 1.584.414 2.196 1.062l1.674-1.8c-.9-1.008-2.034-1.62-3.852-1.62-2.952 0-5.058 2.268-5.058 5.022v.036c0 2.754 2.124 4.986 5.022 4.986zm5.724-.216h2.736v-5.382c0-1.296.666-1.962 1.71-1.962s1.656.666 1.656 1.962v5.382h2.736v-6.246c0-2.214-1.206-3.582-3.276-3.582-1.386 0-2.196.738-2.826 1.548v-4.86h-2.736v13.14zm15.786.216c1.746 0 3.042-.684 3.942-1.8l-1.566-1.386c-.756.702-1.422.99-2.34.99-1.224 0-2.088-.648-2.358-1.89h6.714c.018-.252.036-.504.036-.72 0-2.736-1.476-5.238-4.698-5.238-2.808 0-4.77 2.268-4.77 5.022v.036c0 2.952 2.142 4.986 5.04 4.986zm-2.358-5.796c.216-1.242.954-2.052 2.088-2.052 1.152 0 1.872.828 2.034 2.052h-4.122zm8.82 5.58h2.736v-5.382c0-1.296.666-1.962 1.71-1.962s1.656.666 1.656 1.962v5.382h2.736v-6.246c0-2.214-1.206-3.582-3.276-3.582-1.386 0-2.196.738-2.826 1.548v-1.368h-2.736v9.648zm16.668-10.71h2.88v-2.43h-2.88v2.43zm.072 10.71h2.736v-9.648h-2.736v9.648zm8.694.18c2.088 0 3.69-.972 3.69-3.114v-.036c0-1.764-1.566-2.412-2.916-2.862-1.044-.36-1.962-.612-1.962-1.152v-.036c0-.378.342-.666 1.008-.666.702 0 1.656.342 2.61.9l1.044-1.89c-1.044-.702-2.376-1.116-3.6-1.116-1.944 0-3.528 1.098-3.528 3.06v.036c0 1.872 1.53 2.502 2.88 2.898 1.062.324 1.998.522 1.998 1.116v.036c0 .432-.36.72-1.152.72-.9 0-1.998-.396-3.042-1.152l-1.17 1.8c1.278 1.008 2.79 1.458 4.14 1.458z" sketch:type="MSShapeGroup" fill="#111"/></svg>