<svg width="20" height="17" viewBox="0 0 20 17" xmlns="http://www.w3.org/2000/svg" xmlns:sketch="http://www.bohemiancoding.com/sketch/ns"><title>Twitter</title><path d="M20 2.019c-.567.868-1.252 1.607-2.056 2.218l.013.558c0 1.151-.161 2.3-.482 3.446-.321 1.147-.81 2.247-1.466 3.3-.656 1.054-1.436 1.986-2.341 2.796-.905.81-1.997 1.457-3.274 1.939-1.277.483-2.644.724-4.099.724-2.293 0-4.391-.642-6.294-1.926.296.035.626.053.99.053 1.904 0 3.6-.611 5.089-1.833-.888-.018-1.684-.303-2.386-.857-.702-.553-1.184-1.26-1.447-2.118.279.044.537.066.774.066.364 0 .723-.049 1.079-.146-.948-.204-1.732-.697-2.354-1.481-.622-.784-.933-1.693-.933-2.729v-.053c.575.336 1.193.518 1.853.545-.558-.39-1.003-.899-1.332-1.527-.33-.629-.495-1.31-.495-2.045 0-.779.186-1.501.558-2.165 1.024 1.319 2.269 2.375 3.737 3.168 1.468.792 3.039 1.233 4.714 1.321-.068-.336-.102-.664-.102-.983 0-1.186.4-2.198 1.199-3.035.799-.837 1.766-1.255 2.9-1.255 1.184 0 2.183.452 2.995 1.355.922-.186 1.789-.531 2.602-1.036-.313 1.018-.914 1.806-1.802 2.364.787-.089 1.574-.31 2.36-.664z" sketch:type="MSShapeGroup" fill="#fff"/></svg>